<svg width="42" height="42" viewBox="0 0 42 42" fill="none" xmlns="http://www.w3.org/2000/svg">
<mask id="mask0_398_4555" style="mask-type:alpha" maskUnits="userSpaceOnUse" x="0" y="0" width="42" height="42">
<path d="M3.01835 1H38.9817C39.5186 1.00485 40.032 1.22227 40.41 1.60493C40.788 1.9876 41 2.50455 41 3.04328V28.4647C41 29.0034 40.788 29.5204 40.41 29.903C40.032 30.2857 39.5186 30.5031 38.9817 30.508H23.2936V35.4229C23.3026 35.4716 23.3026 35.5215 23.2936 35.5701H34.4679C34.6869 35.5701 34.8969 35.6574 35.0517 35.8128C35.2066 35.9681 35.2936 36.1788 35.2936 36.3985V37.1716C35.2936 37.3913 35.2066 37.602 35.0517 37.7574C34.8969 37.9127 34.6869 38 34.4679 38H7.53211C7.42368 38 7.31631 37.9786 7.21614 37.9369C7.11596 37.8953 7.02493 37.8343 6.94826 37.7574C6.87159 37.6805 6.81077 37.5891 6.76928 37.4886C6.72778 37.3881 6.70642 37.2804 6.70642 37.1716V36.3985C6.70642 36.2897 6.72778 36.182 6.76928 36.0815C6.81077 35.981 6.87159 35.8897 6.94826 35.8128C7.02493 35.7359 7.11596 35.6748 7.21614 35.6332C7.31631 35.5916 7.42368 35.5701 7.53211 35.5701H18.7248C18.7158 35.5215 18.7158 35.4716 18.7248 35.4229V30.508H3.01835C2.48137 30.5031 1.96803 30.2857 1.59004 29.903C1.21204 29.5204 0.999977 29.0034 1 28.4647V3.04328C0.999977 2.50455 1.21204 1.9876 1.59004 1.60493C1.96803 1.22227 2.48137 1.00485 3.01835 1ZM3.40367 28.0781H38.5963V3.39304H3.40367V28.0781Z" fill="black"/>
<path d="M35 7L7.01788 6.99999L7 25L34.9821 25L35 7Z" fill="black"/>
</mask>
<g mask="url(#mask0_398_4555)">
<path d="M-0.328125 -0.328125H42.3281V8.8375L9.49375 42H-0.328125V-0.328125Z" fill="#595F6D"/>
</g>
</svg>
