<svg width="45" height="45" viewBox="0 0 45 45" fill="none" xmlns="http://www.w3.org/2000/svg">
<mask id="mask0_398_4622" style="mask-type:alpha" maskUnits="userSpaceOnUse" x="0" y="0" width="45" height="45">
<g clip-path="url(#clip0_398_4622)">
<path d="M43.6078 0.0170898H25.5825C23.7516 0.19709 24.1931 3.37803 24.1931 5.44521V15.2862C24.1931 17.4237 23.7853 20.0449 25.2225 20.6524C26.1562 21.0462 28.6678 20.7705 29.88 20.7705H39.4369C41.6447 20.7705 44.6597 21.2908 45 19.398V1.38959C44.7525 0.717402 44.3194 0.233652 43.6078 0.0170898ZM41.13 4.07271V16.8949H28.125V3.89271H41.0681C41.1384 3.90396 41.1356 3.98834 41.13 4.07271ZM19.4147 0.0170898H1.38938C0.655315 0.28709 0.151875 0.78209 0 1.62865V19.1618C0.165939 19.8902 0.55125 20.5118 1.27125 20.7115C2.44687 21.0377 4.40156 20.7705 5.80781 20.7705H15.0609C16.4559 20.7705 18.5259 21.0602 19.6566 20.7115C21.2569 20.2193 20.8069 17.1396 20.8069 14.988V5.8024C20.8069 3.31615 21.3609 0.36584 19.4147 0.0170898ZM16.9341 4.07271V16.8949H3.92906V3.89271H16.875C16.9453 3.90396 16.9397 3.98834 16.9341 4.07271ZM35.2013 7.83021C33.39 7.49271 31.9669 8.69928 31.9359 10.3333C31.8966 12.4905 34.1297 13.6746 35.8678 12.7774C37.8563 11.7537 37.7241 8.2999 35.2013 7.83021ZM11.0081 7.83021C6.74156 7.04553 6.82312 13.7055 11.0081 13.0193C13.6716 12.5805 13.7559 8.33646 11.0081 7.83021ZM25.7062 44.9833H43.5488C44.2884 44.7583 44.7891 44.2971 45 43.5518V25.6024C44.8228 25.0765 44.4178 24.4633 43.7906 24.289C42.6066 23.9599 40.6716 24.2299 39.2541 24.2299H30.0009C28.6341 24.2299 26.6428 23.929 25.4053 24.289C23.7291 24.7755 24.1959 27.8046 24.1959 29.9533V39.4343C24.1931 41.7546 23.6869 44.7752 25.7062 44.9833ZM41.13 28.2855V41.1077H28.125V28.1055H41.0681C41.1384 28.1168 41.1356 28.2012 41.13 28.2855ZM0 25.8387V30.8477C0.140625 32.538 0.0196877 34.4843 0.059063 36.273H12.9431V33.3508C14.1525 33.2102 15.6234 33.3312 16.9341 33.2918C17.0747 37.069 16.9538 41.1049 16.9959 44.9805H19.3556C21.3834 44.5783 20.8069 41.5802 20.8069 39.1952V29.9505C20.8069 28.5612 21.0938 26.4771 20.7478 25.3577C20.3344 24.0246 18.5456 24.2243 16.7569 24.2243H7.9875V32.1555H3.93469C3.89531 29.5315 4.01625 26.7499 3.87563 24.2243C1.92094 24.1146 0.115311 24.1427 0 25.8387ZM34.9003 31.9812C32.9653 31.7702 31.3678 33.604 32.1188 35.6205C33.1594 38.4162 38.1319 37.3643 37.2009 33.8318C36.9394 32.853 36.1969 32.1246 34.9003 31.9812ZM8.58937 44.9833H12.9431C12.9038 43.4533 13.0247 41.763 12.8812 40.3315H8.58656L8.58937 44.9833ZM0 40.3315V43.3718C0.168751 44.2183 0.672188 44.7387 1.45125 44.9833H4.53656C4.49719 43.4533 4.61812 41.763 4.47469 40.3315C2.98406 40.3315 1.49062 40.3315 0 40.3315Z" fill="black"/>
</g>
</mask>
<g mask="url(#mask0_398_4622)">
<path d="M-0.351562 -0.351562H45.3516V9.46875L10.1719 45H-0.351562V-0.351562Z" fill="#595F6D"/>
</g>
<defs>
<clipPath id="clip0_398_4622">
<rect width="45" height="45" fill="white" transform="matrix(-1 0 0 1 45 0)"/>
</clipPath>
</defs>
</svg>
