<?xml version="1.0" ?>
    <svg viewBox="0 0 24 24" xmlns="http://www.w3.org/2000/svg">
    <path   
        d="M8.29,11.29
        a1,1,0,0,0-.21.33,1,1,0,0,0,0,.76,1,1,0,0,0,.21.33
            l3,3
        a1,1,0,0,0,1.42-1.42
            L11.41,13
            H15
        a1,1,0,0,0,0-2
            H11.41l1.3-1.29
        a1,1,0,0,0,0-1.42,1,1,0,0,0-1.42,0
            ZM2,12
            A10,10,0,1,0,12,2,10,10,0,0,0,2,12
            Zm18,0a8,8,0,1,1-8-8
            A8,8,0,0,1,20,12Z" 
        fill="#fff"/>
    </svg>